<svg class="svg-eltres block" xmlns="http://www.w3.org/2000/svg" viewBox="0 0 89.3 100"><style type="text/css">.path-el-tres{fill:#B1B1B1;}</style><path class="path-el-tres" d="M72.4 13.5c-1-2.6-2.4-5-4.5-7 -2.1-2.1-4.5-3.5-7-4.5 -9.3-3.6-20.8-1.7-30 0.8C21.7 5.3 10.8 9.3 4.5 17.1c-1.7 2.2-3.1 4.6-3.9 7.4 -0.8 2.8-0.8 5.6-0.4 8.3 1.5 9.9 8.9 18.8 15.6 25.6 6.7 6.7 15.6 14.2 25.5 15.7 2.7 0.4 5.5 0.4 8.3-0.4 2.8-0.8 5.3-2.1 7.4-3.8 7.8-6.2 11.9-17.1 14.4-26.4C74 34.3 76 22.8 72.4 13.5zM60.3 31.6c-0.4 2.8-1 5.7-1.8 8.5 -0.8 2.8-1.7 5.5-2.7 8.2 -1.3 3.2-2.8 6.4-5 9.1 -1.2 1.5-2.6 2.9-4.5 3.4 -1.9 0.5-3.8 0-5.6-0.7 -3.3-1.3-6.1-3.3-8.9-5.5 -2.2-1.8-4.4-3.7-6.4-5.7 -2-2-3.9-4.2-5.7-6.4 -2.2-2.7-4.1-5.6-5.4-8.9 -0.7-1.8-1.2-3.7-0.7-5.6 0.5-1.9 1.9-3.3 3.4-4.5 2.8-2.2 5.9-3.7 9.2-5 2.7-1.1 5.4-2 8.2-2.7 2.7-0.7 5.6-1.3 8.4-1.8 3.5-0.5 6.9-0.8 10.4-0.3 1.9 0.3 3.8 0.8 5.2 2.2 1.4 1.4 1.9 3.3 2.2 5.2C61.1 24.7 60.8 28.2 60.3 31.6zM50 24.3c-0.8-0.8-1.8-1.1-2.9-1.3 -1.9-0.3-3.9-0.1-5.9 0.2 -1.6 0.3-3.2 0.6-4.7 1 -1.5 0.4-3.1 0.9-4.6 1.5 -1.9 0.7-3.7 1.5-5.2 2.8C26 29.1 25.3 30 25 31c-0.3 1.1-0.1 2.1 0.3 3.1 0.7 1.9 1.9 3.5 3.1 5 1 1.3 2.1 2.5 3.2 3.6 1.1 1.1 2.3 2.2 3.6 3.2 1.5 1.3 3.1 2.4 5 3.1 1 0.4 2.1 0.6 3.1 0.3 1.1-0.3 1.9-1 2.6-1.8 1.3-1.5 2.1-3.3 2.8-5.2 0.6-1.5 1.1-3.1 1.5-4.6 0.4-1.5 0.7-3.1 1-4.7 0.3-2 0.5-3.9 0.2-5.9C51.2 26.1 50.8 25.1 50 24.3zM43.2 34.3c-0.1 0.5-0.2 1-0.3 1.5 -0.1 0.5-0.3 1-0.5 1.5 -0.2 0.6-0.5 1.1-0.9 1.6 -0.2 0.3-0.4 0.6-0.8 0.7 -0.3 0.1-0.7 0-1-0.2 -0.6-0.3-1.1-0.6-1.6-1 -0.4-0.3-0.8-0.7-1.1-1 -0.4-0.4-0.7-0.7-1-1.1 -0.4-0.5-0.7-1-1-1.6 -0.1-0.3-0.3-0.7-0.2-1 0.1-0.3 0.4-0.6 0.7-0.8 0.5-0.4 1.1-0.6 1.6-0.9 0.5-0.2 1-0.3 1.4-0.5 0.5-0.1 1-0.2 1.5-0.3 0.6-0.1 1.2-0.1 1.9-0.1 0.4 0 0.7 0.1 1 0.4 0.3 0.3 0.3 0.6 0.4 1C43.3 33.1 43.2 33.7 43.2 34.3z"></path><path class="path-el-tres" d="M10.8 85.3c-5.1 0-6.9 3-6.9 7.3 0 4.4 1.8 7.3 7 7.3 1.8 0 3.3-0.1 5.1-0.6l-0.3-2.1c-1.6 0.5-3 0.6-4.4 0.6 -3.3 0-4.7-2-4.7-4.8h9.7C16.8 89.8 16.7 85.3 10.8 85.3zM13.8 91.5H6.6c0.2-2.4 1.3-4.2 4.1-4.2C13.7 87.3 14.2 89.5 13.8 91.5zM22.5 81.7h-4.4v2.1h1.8v13.8h-1.8v2.1h6.2v-2.1h-1.8V81.7zM33.3 97.1c-1.5 0-2.1-0.7-2.1-2v-6.8h3.5v-2.6h-3.5v-3.9H28l-0.5 3.9 -1.9 0.2v2.4h1.9v7.4c0 3 1.2 4.3 4.5 4.3 0.8 0 2.1-0.1 2.9-0.3l-0.3-2.8C34 97 33.6 97.1 33.3 97.1zM42.7 87.9L42.7 87.9l-0.1-2.3h-5.3v3H39v8h-1.6v3h7v-3h-1.8v-6.8c1.1-0.6 3-1.1 4.9-1.1v-3.5C45.4 85.3 43.6 86.6 42.7 87.9zM55.6 85.3c-5.4 0-7.3 2.9-7.3 7.3 0 4.5 1.9 7.3 7.3 7.3 1.8 0 3.5-0.1 5.4-0.7l-0.4-2.9c-1.8 0.5-3.2 0.6-4.4 0.6 -2.6 0-3.9-1.4-4-3.5h9.2C62 89.5 61.6 85.3 55.6 85.3zM57.8 91.1h-5.6c0.2-1.8 1.1-3 3.2-3C57.7 88.2 58 89.6 57.8 91.1zM69.5 90.9c-1.8-0.4-2.3-0.8-2.3-1.4 0-0.5 0.4-1.2 2.1-1.2 0.6 0 1.6 0 2.7 0.2v1.4h3V86c-1.7-0.4-3.6-0.7-5.9-0.7 -3.4 0-5.6 1.2-5.6 4.2 0 3.2 2.6 4.2 5.8 4.8 1.7 0.3 2.4 0.7 2.4 1.4 0 0.5-0.5 1.4-2.3 1.4 -0.6 0-1.8 0-3-0.2v-1.4h-3v3.9c1.7 0.4 4.1 0.7 6.4 0.7 3.4 0 5.6-1.4 5.6-4.5C75.5 92.2 72.2 91.5 69.5 90.9zM77.2 83.2h1.7v5.3h1.8v-5.3h1.7v-1.6h-5.2V83.2zM87.4 81.6l-1.3 4.3 -1.3-4.3H83l2.3 7H87l2.3-7H87.4z"></path></svg>