<svg class="svg-fmvida block" xmlns="http://www.w3.org/2000/svg" viewBox="-654 371 130.6 60"><style type="text/css">.fm0{fill:#868686;}.fm1{fill:#32378F;}.fm2{fill:#FFFFFF;}</style><path class="fm0" d="M-644 374v2.3h5.9l-0.5 3h-5.4v5.4h-3.5V371h10.3l-0.5 3H-644z"></path><path class="fm0" d="M-635.5 371h3.5l2.8 7.3 2.9-7.3h3.5l2.1 13.7h-3.6l-1-7.9 0 0 -3.3 7.9h-1.4l-3.1-7.9 0 0 -1.1 7.9h-3.5L-635.5 371z"></path><path class="fm0" d="M-611.8 384.1l3-4.1 0 0c-0.2 0.1-0.4 0.1-0.5 0.1 -0.1 0-0.4 0-0.6 0 -1.2 0-2.2-0.4-3-1.3s-1.2-1.8-1.2-3 0.4-2.3 1.3-3.2c0.9-0.9 2-1.3 3.2-1.3s2.3 0.4 3.2 1.3c0.9 0.9 1.3 1.9 1.3 3.2 0 0.6-0.1 1.1-0.4 1.7 -0.2 0.5-0.5 1-0.9 1.5l-4.3 5.9L-611.8 384.1zM-611.8 373.6c-0.6 0.6-0.9 1.3-0.9 2.2s0.3 1.6 0.9 2.1c0.6 0.5 1.3 0.9 2.2 0.9s1.6-0.3 2.2-0.9c0.6-0.6 0.9-1.3 0.9-2.1s-0.3-1.6-0.9-2.2c-0.6-0.6-1.3-0.9-2.2-0.9S-611.2 373-611.8 373.6z"></path><path class="fm0" d="M-603.4 373v-1.3h9.6l-8.7 13.2 -1.1-0.7 7.4-11.2H-603.4L-603.4 373z"></path><path class="fm0" d="M-590.3 383.2c0.2 0.2 0.3 0.4 0.3 0.7s-0.1 0.5-0.3 0.7c-0.2 0.2-0.4 0.3-0.7 0.3 -0.3 0-0.5-0.1-0.7-0.3s-0.3-0.4-0.3-0.7c0-0.3 0.1-0.5 0.3-0.7 0.2-0.2 0.4-0.3 0.7-0.3C-590.7 382.9-590.5 383-590.3 383.2z"></path><path class="fm0" d="M-585.2 384.1l3-4.1 0 0c-0.2 0.1-0.4 0.1-0.5 0.1 -0.1 0-0.4 0-0.6 0 -1.2 0-2.2-0.4-3-1.3s-1.2-1.8-1.2-3 0.4-2.3 1.3-3.2c0.9-0.9 2-1.3 3.2-1.3s2.3 0.4 3.2 1.3c0.9 0.9 1.3 1.9 1.3 3.2 0 0.6-0.1 1.1-0.4 1.7 -0.2 0.5-0.5 1-0.9 1.5l-4.3 5.9L-585.2 384.1zM-585.2 373.6c-0.6 0.6-0.9 1.3-0.9 2.2s0.3 1.6 0.9 2.1c0.6 0.6 1.3 0.9 2.2 0.9s1.6-0.3 2.2-0.9c0.6-0.6 0.9-1.3 0.9-2.1s-0.3-1.6-0.9-2.2c-0.6-0.6-1.3-0.9-2.2-0.9C-583.9 372.7-584.6 373-585.2 373.6z"></path><path class="fm0" d="M-653.2 411c0.1-0.2-1-3.5 1.3-8 0.9-1.8 2.3-2.8 2.8-3.7 0.2-0.4 0.3-1-0.1-1.2 -0.4-0.2-0.8-0.1-1.3 0.3 -0.9 0.7-2.3 2.4-2.9 4.5C-654.8 407.3-653.3 411.5-653.2 411z"></path><path class="fm0" d="M-641.1 415.7c0 0-3.9-0.3-6.7-2.1 -2.2-1.5-3.6-4.4 0-9.5l0 0c2.9-3.7 6.7-5.4 9.3-7.2 1.8-1.1 2-2.1 1.3-2.9 -0.6-0.7-2.7-0.3-5.3 1.6 -1.6 1.2-5.7 4.8-7.3 7.4 -0.6 0.8-5.4 8.3 1.5 11.2 0.8 0.4 2.6 1.2 6 1.6C-641.6 415.9-641.3 415.8-641.1 415.7z"></path><path class="fm1" d="M-533.6 414.1L-533.6 414.1 -533.6 414.1z"></path><path class="fm0" d="M-525.2 406L-525.2 406c0.3 1.1 1.3 4.5-0.4 8.4 -0.2 0.5-0.6 1.1-0.9 1.6 -0.6 1.1-1.2 1.5-1.7 2.4 -0.2 0.4-0.2 1.1 0.3 1.2s1 0 1.6-0.6c1-0.9 2-2.7 2.5-4.9C-523.1 412-523.3 408.6-525.2 406z"></path><path class="fm1" d="M-537.1 394.4c0 0 0 0.1 0.1 0.2 5 2.2 12.9 8.6 5.7 19.3l0 0c-3.9 4.7-9.3 7.1-12.8 9.5 -2.6 1.5-2.6 2.7-1.7 3.5 0.9 0.7 3.9 0 7.6-2.6 3-2.1 10.6-7.4 11.7-13.9C-525.2 403.9-527.2 397.2-537.1 394.4z"></path><path class="fm0" d="M-537.1 394.4c0 0 0 0.1 0.1 0.2 5 2.2 12.9 8.6 5.7 19.3l0 0c-3.9 4.7-9.3 7.1-12.8 9.5 -2.6 1.5-2.6 2.7-1.7 3.5 0.9 0.7 3.9 0 7.6-2.6 3-2.1 10.6-7.4 11.7-13.9C-525.2 403.9-527.2 397.2-537.1 394.4z"></path><path class="fm2" d="M-531.9 419.3L-531.9 419.3c-1.5 1.4-3 2.7-4.3 3.6 2 0.4 4 0.8 5.9 1.2C-530.8 422.6-531.4 421-531.9 419.3z"></path><path class="fm2" d="M-610.4 427.1c0.2 0 0.4 0 0.6 0 0.3 0 0.6 0 0.9-0.1 0.1 0 0.2 0 0.4 0 0.3 0 0.6 0 0.9-0.1 0.1 0 0.3 0 0.4 0 0.3 0 0.6-0.1 0.9-0.1 0.1 0 0.3 0 0.5 0 0.3 0 0.6-0.1 0.9-0.1 0.2 0 0.4 0 0.6-0.1 0.3 0 0.6-0.1 0.9-0.1 0.2 0 0.5 0 0.7-0.1 0.2 0 0.5-0.1 0.8-0.1s0.6-0.1 0.9-0.1c0.2 0 0.4 0 0.6-0.1 0.5-0.1 1-0.1 1.6-0.2v-23.5c-4.3 0.5-8 0.9-11.5 1.2L-610.4 427.1 -610.4 427.1z"></path><path class="fm2" d="M-610.5 394.9c0 1.2 0 2.2 0 3.2 0 0.8 0 1.6 0 2.4 3.4-0.3 7.1-0.6 11.5-1.2v-7.6c-3.6 0.4-7.5 0.9-11.6 1.2L-610.5 394.9 -610.5 394.9z"></path><path class="fm2" d="M-627.9 409L-627.9 409c-0.1 0.5-0.2 0.9-0.4 1.2 0 0.1-0.1 0.2-0.1 0.4l0 0c0 0.1-0.1 0.2-0.1 0.3l0 0c0 0.1-0.1 0.2-0.1 0.3l0 0c0 0.1-0.1 0.2-0.1 0.3 -0.1 0.4-0.2 0.7-0.4 1.2l-0.8 2.8 -0.7-3.2c-0.3-1.2-0.4-1.9-0.9-3.5 -1.2-4.1-2.4-8.3-3.5-12.5 -0.4-1.2-0.7-2.4-1-3.7l0 0c-0.2 0-0.4 0-0.5-0.1 0.1 0 0.2 0 0.2 0 -0.3 0-0.6-0.1-0.9-0.1 -0.6-0.1-1.3-0.2-2-0.2 -0.3 0-0.6-0.1-0.8-0.1 -2.2-0.4-4.4-0.7-6.5-1.2 -0.4-0.1-0.8-0.2-1.2-0.3l0 0h-0.1c0.7 2.1 1.5 4.2 2.2 6.3 0.1 0.4 0.2 0.7 0.4 1 1.1-1 2.1-1.8 2.7-2.3 2.7-1.9 4.8-2.3 5.3-1.6 0.4 0.5 0.5 1.1-0.1 1.8 0.1 0 0.2 0.1 0.3 0.2 0.6 0.7 0.5 1.8-1.3 2.9 -1.5 1.1-3.4 2.1-5.3 3.4l0 0c0.7 2.1 1.2 3.4 2 5.5 0.1 0.4 0.3 0.8 0.4 1.2 2.2 6 4.4 12 6.6 17.9 3.2 0.3 6.5 0.5 9.9 0.5 0.9-2.3 1.8-4.7 2.7-7 3.3-8.4 6.6-17 10-26l0.6-1.7c-3.9 0.3-7.9 0.5-12 0.5C-624.8 398.6-626.3 403.8-627.9 409z"></path><path class="fm2" d="M-533.7 413.9c-0.1-0.4-0.2-0.7-0.4-1 -2.7-8.3-5.6-16.6-8.4-25l0 0 0 0c-4.2-0.5-8.5-0.7-13.2-0.6 -1.5 4.3-3 8.5-4.5 12.9 -0.2 0.7-0.5 1.4-0.7 2.1 0 0.1-0.1 0.2-0.1 0.4 -0.3 0.8-0.5 1.6-0.8 2.4l-0.6 1.8c0 0 0 0 0-0.1v0.2 -1.8c0-5.4-1.6-9.5-4.6-12.2 -0.2-0.2-0.5-0.4-0.7-0.6 -0.1-0.1-0.2-0.1-0.2-0.2 -0.2-0.1-0.4-0.2-0.5-0.4 -0.1-0.1-0.2-0.1-0.3-0.2 -0.2-0.1-0.4-0.2-0.5-0.3 -0.1-0.1-0.2-0.1-0.4-0.2s-0.4-0.2-0.5-0.2c-0.1-0.1-0.2-0.1-0.4-0.1 -0.2-0.1-0.4-0.1-0.6-0.2 -0.1 0-0.2-0.1-0.4-0.1 -0.2-0.1-0.4-0.1-0.6-0.2 -0.1 0-0.2-0.1-0.4-0.1 -0.2-0.1-0.5-0.1-0.7-0.2 -0.1 0-0.2 0-0.3-0.1 -0.4-0.1-0.7-0.1-1.1-0.2 -2.4-0.4-5.1-0.4-8 0 -2 0.2-3.9 0.5-5.9 0.8 -2.2 0.3-4.5 0.6-6.7 0.9v34.1c2.2-0.3 4.3-0.6 6.5-0.9 3-0.4 6.1-0.8 9.1-1.2 5.9-0.7 10.8-3.4 13.8-7.4l0.1-0.2 0.6-0.8 0 0v-0.1l-0.5 1.6c-0.6 1.8-1.2 3.7-1.8 5.5 4.3-0.3 8.3-0.5 12.1-0.5l1-4.5h0.6c3.4 0 6.7 0.2 9.9 0.5h0.5l0.8 3c2.8-1.7 6.2-3.6 9-6.4C-533.7 414-533.7 414-533.7 413.9zM-580.4 414.1L-580.4 414.1c-0.1 0-0.2 0-0.4 0.1 -0.2 0-0.4 0.1-0.5 0.1 -0.3 0.1-0.6 0.1-1 0.1l0 0 -0.8 0.1 -0.8 0.1v-15.3l0.7-0.1 0.7-0.1c0.4 0 0.7-0.1 1-0.1 2.3-0.1 4.1 0.4 5.4 1.5 0.1 0.1 0.3 0.3 0.4 0.5l0.1 0.1c0.1 0.1 0.2 0.2 0.2 0.4 0 0.1 0.1 0.1 0.1 0.2 0.1 0.1 0.1 0.2 0.2 0.4 0 0.1 0.1 0.1 0.1 0.2 0.1 0.1 0.1 0.3 0.2 0.4 0 0.1 0.1 0.1 0.1 0.2 0.1 0.2 0.1 0.4 0.2 0.6 0 0.1 0 0.1 0 0.2 0 0.2 0.1 0.3 0.1 0.5 0 0.1 0 0.2 0 0.3 0 0.1 0 0.2 0 0.2l0 0c0 0.4 0.1 0.9 0.1 1.3C-574 410.2-576.3 413-580.4 414.1zM-545.4 410.4h-0.1l0 0 -0.9-0.1c-0.8-0.1-1.6-0.1-2.4-0.1 -0.9 0-1.8-0.1-2.8-0.1h-0.9l0.2-0.9c0.2-0.9 0.4-1.8 0.6-2.8s0.4-1.8 0.7-2.7c0.4-1.7 0.9-3.5 1.2-5.3l0.1-0.3 0.1-0.3h0.6 0.6l0.1 0.5c0.2 0.7 0.4 1.5 0.6 2.4 0.1 0.3 0.1 0.6 0.2 0.9 0.2 0.7 0.3 1.3 0.5 1.9 0 0.1 0 0.2 0.1 0.3 0.2 1 0.4 1.9 0.6 2.8s0.4 1.8 0.7 2.8l0.2 0.8L-545.4 410.4 -545.4 410.4z"></path><path class="fm0" d="M-534 412.9c0.1 0.4 0.2 0.8 0.4 1.2 0.2-0.2 0.4-0.5 0.6-0.7s0.3-0.4 0.5-0.5l0 0 0 0c0.1-0.1 0.2-0.2 0.3-0.4l0 0c0.2-0.2 0.3-0.5 0.5-0.7 -2.4-7.2-4.8-14.3-7.4-22l-0.4-1.1c-0.1-0.3-0.4-0.5-0.7-0.5l-0.7-0.1 -0.4-1.1c-0.1-0.3-0.4-0.5-0.7-0.5l-0.9-0.1c-4.6-0.5-8.3-0.6-12.7-0.6h-0.8c-0.3 0-0.6 0.2-0.7 0.5l-0.6 1.8c-1.3 3.8-2.2 6.3-3.4 10 -0.9-1.8-2-3.3-3.4-4.6 -0.1-0.1-0.1-0.1-0.2-0.2 -0.5-0.6-1-1.1-1.5-1.6 -3.9-3.4-9.7-4.6-16.8-3.7 -2 0.2-3.9 0.5-5.9 0.8 -1.4 0.2-2.8 0.4-4.2 0.6 -0.7 0.1-2.2 0.3-3.1 0.4 -0.4 0-0.7 0.4-0.7 0.8v1.3c-0.2 0-0.4 0-0.5 0.1v-1.1c0-0.5-0.4-0.8-0.9-0.7 -3.8 0.5-7.9 0.9-12.2 1.2h-0.2c-3.6 0.3-11.1 0.5-13.2 0.5 -0.3 0-0.6 0.2-0.7 0.5 -0.6 2.1-3 10.2-4.4 15.1 -1.2-4.3-2.3-7.9-3.6-12.6l-0.4-1.3c-0.1-0.3-0.4-0.5-0.7-0.6l-0.8-0.1 -0.3-1.1c-0.1-0.3-0.4-0.5-0.7-0.6l-0.9-0.1c-4.6-0.5-8.3-1.2-12.6-2.3l0 0c-0.6-0.1-1.1 0.4-0.9 1 1.1 3.2 2.2 6.2 3.3 9.3 0.4-0.4 0.8-0.8 1.2-1.1 -0.1-0.4-0.2-0.7-0.4-1 -0.7-2.1-1.5-4.2-2.2-6.3h0.1l0 0c0.4 0.1 0.8 0.2 1.2 0.3 2.1 0.5 4.3 0.9 6.5 1.2 0.3 0 0.6 0.1 0.8 0.1 0.6 0.1 1.3 0.2 2 0.2 0.3 0 0.6 0.1 0.9 0.1 -0.1 0-0.2 0-0.2 0 0.2 0 0.4 0 0.5 0.1l0 0c0.4 1.2 0.7 2.4 1 3.7 1.2 4.2 2.4 8.4 3.5 12.5 0.5 1.6 0.6 2.3 0.9 3.5l0.7 3.2 0.8-2.8c0.1-0.5 0.2-0.9 0.4-1.2 0-0.1 0.1-0.2 0.1-0.3l0 0c0-0.1 0.1-0.2 0.1-0.3l0 0c0-0.1 0.1-0.2 0.1-0.3l0 0c0-0.1 0.1-0.2 0.1-0.4 0.1-0.4 0.2-0.7 0.4-1.2l0 0c1.5-5.2 3-10.4 4.6-15.6 4.1 0 8.1-0.2 12-0.5l-0.6 1.7c-3.4 8.9-6.7 17.6-10 26 -0.9 2.3-1.8 4.7-2.7 7 -3.5 0-6.7-0.2-9.9-0.5 -2.2-6-4.4-12-6.6-17.9 -0.1-0.4-0.3-0.8-0.4-1.2 -0.8-2.1-1.2-3.4-2-5.5l0 0c-0.1 0.1-0.2 0.1-0.3 0.2l-0.1 0.1 0 0c-0.3 0.2-0.6 0.4-0.9 0.7 2.7 7.6 5.2 14.3 8.3 22.7l0.7 2c0.1 0.3 0.4 0.5 0.7 0.5l0.6 0.1 0.4 1.2c0.1 0.3 0.4 0.5 0.7 0.5l1.4 0.1c3.4 0.3 4.7 0.4 8.6 0.5h1c0.3 0 0.6-0.2 0.7-0.5l0.9-2.4c1-2.5 1-2.6 2-5.1 2.3-5.8 4.6-11.8 6.9-17.8v22.9c0 0.4 0.4 0.8 0.8 0.7 0.3 0 0.6 0 0.9-0.1v1c0 0.4 0.4 0.8 0.8 0.7 3.8-0.3 5.2-0.4 10.3-1l2.7-0.3c0.4 0 0.7-0.4 0.7-0.7v-1.3c0.2 0 0.4 0 0.5-0.1v1.1c0 0.5 0.4 0.8 0.9 0.7 2.4-0.3 4.9-0.6 7.4-1 3-0.4 6-0.8 9.1-1.2 3.4-0.4 6.5-1.5 9.2-3h0.1c0.4 0 0.8-0.1 1.2-0.1 -0.1 0.3-0.2 0.5-0.3 0.8l0 0c-0.2 0.5 0.2 1 0.8 1 5-0.4 8-0.6 12.2-0.6h1.4c0.4 0 0.7-0.2 0.8-0.6l0.7-3.2c0.1-0.4 0.4-0.6 0.8-0.6 2.3 0 4.5 0.1 6.7 0.3l0.2 0.9c0.4-0.2 0.8-0.5 1.2-0.7 0 0 0.1 0 0.1-0.1l-0.8-3.1h-0.5c-3.2-0.3-6.5-0.5-9.9-0.5h-0.6l-1 4.5c-3.8 0-7.7 0.2-12.1 0.5 0.6-1.8 1.2-3.7 1.8-5.5l0.5-1.6c0 0 0 0 0 0.1l0 0 -0.6 0.8 -0.1 0.2c-3 4.1-8 6.7-13.8 7.4 -3 0.4-6.1 0.8-9.1 1.2 -2.2 0.3-4.3 0.6-6.5 0.9v-34.4c2.2-0.3 4.5-0.6 6.7-0.9 2-0.2 3.9-0.5 5.9-0.8 2.9-0.4 5.6-0.4 8 0 0.4 0.1 0.7 0.1 1.1 0.2 0.1 0 0.2 0 0.3 0.1 0.2 0.1 0.5 0.1 0.7 0.2 0.1 0 0.2 0.1 0.4 0.1 0.2 0.1 0.4 0.1 0.6 0.2 0.1 0 0.2 0.1 0.4 0.1 0.2 0.1 0.4 0.1 0.6 0.2 0.1 0 0.2 0.1 0.4 0.1 0.2 0.1 0.4 0.2 0.5 0.2 0.1 0.1 0.2 0.1 0.4 0.2 0.2 0.1 0.4 0.2 0.5 0.3 0.1 0.1 0.2 0.1 0.3 0.2 0.2 0.1 0.4 0.2 0.5 0.4 0.1 0.1 0.2 0.1 0.2 0.2 0.2 0.2 0.5 0.4 0.7 0.6 3.1 2.7 4.6 6.8 4.6 12.2v1.8 -0.2 0.1l0.6-1.8c0.3-0.8 0.6-1.6 0.8-2.4 0-0.1 0.1-0.2 0.1-0.4 0.2-0.7 0.5-1.4 0.7-2.1 1.5-4.4 3-8.7 4.5-12.9 4.7 0 9 0.2 13.2 0.6l0 0 0 0C-539.6 396.3-536.8 404.7-534 412.9zM-598.9 425.9c-0.5 0.1-1.1 0.1-1.6 0.2 -0.2 0-0.4 0-0.6 0.1 -0.3 0-0.6 0.1-0.9 0.1 -0.2 0-0.5 0.1-0.8 0.1 -0.2 0-0.5 0-0.7 0.1 -0.3 0-0.6 0.1-0.9 0.1 -0.2 0-0.4 0-0.6 0.1 -0.3 0-0.6 0.1-0.9 0.1 -0.1 0-0.3 0-0.5 0 -0.3 0-0.6 0.1-0.9 0.1 -0.1 0-0.3 0-0.4 0 -0.3 0-0.6 0.1-0.9 0.1 -0.1 0-0.3 0-0.4 0 -0.3 0-0.6 0-0.9 0.1 -0.2 0-0.4 0-0.6 0v-23.4c3.4-0.3 7.1-0.6 11.5-1.2L-598.9 425.9 -598.9 425.9zM-598.9 399.4c-4.4 0.5-8 0.9-11.5 1.2 0-0.9 0-1.7 0-2.4 0-1 0-2.1 0-3.2v-2c4.1-0.3 8-0.7 11.6-1.2L-598.9 399.4 -598.9 399.4z"></path><path class="fm0" d="M-581.3 414.3c0.2 0 0.4-0.1 0.5-0.1 0.1 0 0.2 0 0.4-0.1l0 0c4.1-1.1 6.5-3.9 6.5-8 0-0.5 0-0.9-0.1-1.3l0 0c0-0.1 0-0.2 0-0.2 0-0.1 0-0.2 0-0.3 0-0.2-0.1-0.3-0.1-0.5 0-0.1 0-0.1 0-0.2 -0.1-0.2-0.1-0.5-0.2-0.6 0-0.1-0.1-0.1-0.1-0.2 -0.1-0.1-0.1-0.3-0.2-0.4 0-0.1-0.1-0.1-0.1-0.2 -0.1-0.1-0.1-0.2-0.2-0.4 0-0.1-0.1-0.1-0.1-0.2 -0.1-0.1-0.2-0.2-0.2-0.4l-0.1-0.1c-0.1-0.1-0.3-0.3-0.4-0.5 -1.3-1.1-3.1-1.6-5.4-1.5 -0.3 0-0.7 0-1 0.1l-0.7 0.1 -0.7 0.1v15.4l0.8-0.1 0.8-0.1 0 0C-581.9 414.4-581.6 414.4-581.3 414.3zM-580.4 402.7c0-0.1 0.1-0.3 0.2-0.3 0.4 0 1-0.1 1.3-0.1 1 0 1.9 0.1 2.6 0.4 0.5 0.9 0.7 2 0.7 3.4 0 4-2.6 5.7-4.9 6.4L-580.4 402.7 -580.4 402.7z"></path><path class="fm0" d="M-545.4 410.4L-545.4 410.4v-0.2l-0.2-0.8c-0.2-1-0.5-1.9-0.7-2.8s-0.4-1.8-0.6-2.8c0-0.1 0-0.2-0.1-0.3 -0.1-0.6-0.3-1.2-0.5-1.9 -0.1-0.3-0.1-0.6-0.2-0.9 -0.2-0.9-0.4-1.7-0.6-2.4l-0.1-0.5h-0.6 -0.6l-0.1 0.3 -0.1 0.3c-0.4 1.8-0.8 3.5-1.2 5.3 -0.2 0.9-0.4 1.8-0.7 2.7 -0.2 0.9-0.4 1.8-0.6 2.8l-0.2 0.9h0.9c0.9 0 1.9 0.1 2.8 0.1 0.8 0 1.6 0.1 2.4 0.1l0.9 0.1 0 0L-545.4 410.4zM-547.7 408.7c-0.4 0-0.7 0-1.1 0 0.2-0.9 0.5-1.8 0.7-2.8 0 0 0-0.1 0-0.2 0.1 0.4 0.2 0.8 0.3 1.2 0.1 0.5 0.2 1 0.4 1.5C-547.4 408.5-547.5 408.7-547.7 408.7z"></path><path class="fm0" d="M-529.9 417.1c-0.6 0.8-1.3 1.5-2 2.2 0.5 1.6 1.1 3.3 1.6 4.9 -1.9-0.5-3.9-0.9-5.9-1.2 -0.7 0.6-1.4 1-1.9 1.4 -0.6 0.4-1.1 0.7-1.7 1.1 4.4 0.5 8 1.2 12.2 2.3l0 0c0.6 0.1 1.1-0.4 0.9-1C-527.8 423.5-528.8 420.3-529.9 417.1z"></path></svg>