<svg class="svg-ig block" xmlns="http://www.w3.org/2000/svg" viewBox="0 0 100 100"><path class="st0" d="M72.4 0H27.6C12.4 0 0 12.4 0 27.6v44.8C0 87.6 12.4 100 27.6 100h44.8c15.2 0 27.6-12.4 27.6-27.6V27.6C100 12.4 87.6 0 72.4 0L72.4 0zM91.1 72.4c0 10.3-8.4 18.7-18.7 18.7H27.6c-10.3 0-18.7-8.4-18.7-18.7V27.6c0-10.3 8.4-18.7 18.7-18.7h44.8c10.3 0 18.7 8.4 18.7 18.7V72.4zM91.1 72.4"></path><path class="st0" d="M50 24.2c-14.2 0-25.8 11.6-25.8 25.8 0 14.2 11.6 25.8 25.8 25.8 14.2 0 25.8-11.6 25.8-25.8C75.8 35.8 64.2 24.2 50 24.2L50 24.2zM50 66.9c-9.3 0-16.9-7.6-16.9-16.9 0-9.3 7.6-16.9 16.9-16.9S66.9 40.7 66.9 50C66.9 59.3 59.3 66.9 50 66.9L50 66.9zM50 66.9"></path><path class="st0" d="M76.8 16.7c-1.7 0-3.4 0.7-4.6 1.9 -1.2 1.2-1.9 2.9-1.9 4.6 0 1.7 0.7 3.4 1.9 4.6 1.2 1.2 2.9 1.9 4.6 1.9 1.7 0 3.4-0.7 4.6-1.9 1.2-1.2 1.9-2.9 1.9-4.6 0-1.7-0.7-3.4-1.9-4.6C80.2 17.4 78.6 16.7 76.8 16.7L76.8 16.7zM76.8 16.7"></path></svg>