<svg class="svg-radioplus block" xmlns="http://www.w3.org/2000/svg" viewBox="0 0 100 55.2"><style type="text/css">.rplus0{fill:#878787;}.rplus1{fill:#BFBFBF;}</style><path class="rplus0" d="M44.2 3h0.6c0.3 0 0.5-0.2 0.5-0.4 0-0.3-0.2-0.4-0.5-0.4h-0.6V3zM43.7 4.2V1.8h1.1c0.5 0 0.9 0.3 0.9 0.8 0 0.4-0.2 0.6-0.6 0.7l0.6 0.9h-0.6l-0.6-0.8h-0.5v0.8H43.7zM44.7 5.1c1.2 0 2.1-1 2.1-2.1 0-1.2-0.9-2.1-2.1-2.1 -1.2 0-2.1 1-2.1 2.1C42.6 4.2 43.5 5.1 44.7 5.1zM44.7 5.4c-1.3 0-2.4-1.1-2.4-2.4 0-1.3 1-2.4 2.4-2.4C46 0.6 47 1.7 47 3 47 4.3 46 5.4 44.7 5.4zM28.9 22.7v1.7l-4.1 0 0 4.1h-1.7v-4.1l-4.1 0v-1.7h4.1v-4.1h1.7l0 4.1H28.9zM16.4 31.8c2 1.8 4.7 2.8 7.6 2.8 6.3 0 11.3-5 11.3-11.1 0-6.1-5.1-11.1-11.3-11.1 -6.2 0-11.3 4.9-11.3 11.1V36l3.9-3.2L16.4 31.8zM47.2 23.5c0 12.7-10.3 23-23 23 -4.1 0-7.7-1-11.3-2.9 -0.4-0.2-0.8 0-0.8 0.5v5.2c0 3.6-2.7 6.4-6.1 6.4 -3.3 0-6.1-2.8-6.1-6.4V7c0-3.6 2.7-6.4 6.1-6.4 2.3 0 4 1.2 5.2 3.1C11.4 4 11.8 4.1 12 3.9c3.8-2.3 7.8-3.5 12.2-3.5C36.9 0.5 47.2 10.8 47.2 23.5z"></path><path class="rplus0" d="M78.1 23.3c-0.6-0.7-0.9-1.7-0.9-3.1v-8.6c0-0.3 0.1-0.5 0.4-0.6 0.2-0.1 0.6-0.2 1.2-0.2h0.7c0.5 0 0.9 0.1 1.2 0.2 0.2 0.1 0.4 0.3 0.4 0.6v8c0 0.5 0.1 0.9 0.4 1.2 0.2 0.3 0.6 0.4 1.2 0.4 0.5 0 0.9-0.1 1.2-0.4 0.4-0.3 0.6-0.6 0.8-1v-8.1c0-0.3 0.1-0.5 0.4-0.6 0.2-0.1 0.6-0.2 1.2-0.2h0.7c0.5 0 0.9 0.1 1.2 0.2 0.2 0.1 0.4 0.3 0.4 0.6v8c0 0.8 0 1.4 0.1 1.9 0 0.4 0.1 0.9 0.2 1.3 0 0.3 0.1 0.4 0.1 0.5 0 0.2-0.2 0.3-0.5 0.5 -0.4 0.1-0.8 0.2-1.2 0.3 -0.4 0.1-0.8 0.1-1.1 0.1 -0.3 0-0.5-0.1-0.7-0.4 -0.1-0.2-0.2-0.6-0.3-1l-0.1-0.4c-0.4 0.5-0.9 1-1.6 1.4 -0.7 0.4-1.4 0.6-2.1 0.6C79.6 24.3 78.7 24 78.1 23.3zM70.4 23.3c-0.6-0.7-0.9-1.7-0.9-3.1V5.9C69.5 5.3 70 5 71 5h0.7c0.5 0 0.9 0.1 1.1 0.2 0.2 0.1 0.4 0.3 0.4 0.6v14.4c0 0.4 0.1 0.7 0.2 0.8 0.1 0.2 0.4 0.3 0.7 0.3 0.1 0 0.2 0 0.4-0.1l0.1 0c0 0 0.1 0 0.2 0 0.1 0 0.3 0.1 0.4 0.4 0.1 0.2 0.2 0.5 0.3 0.8 0.1 0.3 0.1 0.5 0.1 0.6 0 0.8-0.8 1.3-2.4 1.3C71.9 24.3 71 24 70.4 23.3zM61.3 14.2c0.6 0 1.1-0.2 1.6-0.5 0.4-0.3 0.7-0.9 0.7-1.7 0-0.8-0.2-1.4-0.7-1.7 -0.4-0.3-1-0.5-1.6-0.5h-2.2v4.4H61.3zM55.2 23.4v-16c0-0.4 0.1-0.6 0.2-0.8 0.2-0.2 0.4-0.2 0.8-0.2h5.3c1.6 0 3 0.4 4.2 1.2 1.2 0.8 1.8 2.2 1.8 4.4 0 1.5-0.4 2.6-1.1 3.5 -0.7 0.8-1.5 1.4-2.4 1.7 -0.9 0.3-1.7 0.4-2.3 0.4h-2.7v5.9c0 0.5-0.5 0.8-1.5 0.8h-0.9C55.7 24.2 55.2 23.9 55.2 23.4zM93.1 24.1c-0.6-0.1-1.2-0.3-1.6-0.6 -0.4-0.3-0.6-0.6-0.6-0.9 0-0.2 0.1-0.5 0.2-0.8 0.2-0.3 0.3-0.6 0.5-0.8 0.2-0.2 0.4-0.4 0.6-0.4 0.1 0 0.3 0.1 0.6 0.2 0.3 0.2 0.6 0.3 1 0.4 0.3 0.1 0.6 0.1 1 0.1 0.5 0 0.8-0.1 1.1-0.3 0.2-0.2 0.4-0.4 0.4-0.8 0-0.3-0.1-0.5-0.2-0.7 -0.1-0.2-0.3-0.3-0.6-0.4 -0.2-0.1-0.6-0.3-1-0.4L94 18.6c-0.5-0.2-1-0.4-1.4-0.7 -0.4-0.3-0.8-0.6-1-1.2 -0.3-0.5-0.4-1.2-0.4-1.9 0-0.9 0.2-1.6 0.6-2.2 0.4-0.6 0.9-1.1 1.6-1.4 0.7-0.3 1.5-0.5 2.4-0.5 0.5 0 1.1 0.1 1.7 0.2 0.6 0.1 1.1 0.3 1.5 0.5 0.4 0.2 0.6 0.5 0.6 0.8 0 0.2-0.1 0.4-0.2 0.8 -0.1 0.3-0.3 0.6-0.4 0.9 -0.2 0.2-0.3 0.4-0.5 0.4 0 0-0.2 0-0.4-0.1 -0.3-0.1-0.6-0.2-0.9-0.3 -0.3-0.1-0.6-0.1-0.9-0.1 -0.9 0-1.3 0.3-1.3 0.9 0 0.3 0.1 0.5 0.2 0.7 0.2 0.2 0.4 0.3 0.6 0.5 0.2 0.1 0.6 0.3 1 0.4 0.5 0.2 0.8 0.3 1 0.4 0.7 0.3 1.2 0.8 1.6 1.3 0.4 0.5 0.6 1.3 0.6 2.2 0 0.9-0.2 1.6-0.6 2.3 -0.4 0.7-1 1.2-1.7 1.5 -0.7 0.4-1.6 0.5-2.7 0.5C94.4 24.3 93.7 24.3 93.1 24.1z"></path><path class="rplus1" d="M82.3 45.7v-2.3c0-0.5 0.5-0.8 1.5-0.8h0.8c0.5 0 0.9 0.1 1.1 0.2 0.2 0.1 0.4 0.3 0.4 0.6v2.3c0 0.5-0.5 0.8-1.5 0.8h-0.8C82.8 46.5 82.3 46.3 82.3 45.7zM72.5 46.5c-0.9-0.1-1.6-0.4-2.2-0.7 -0.6-0.3-0.9-0.7-0.9-1.2 0-0.2 0.1-0.4 0.2-0.7 0.1-0.3 0.3-0.6 0.5-0.8 0.2-0.2 0.4-0.4 0.6-0.4 0.1 0 0.3 0.1 0.7 0.2 0.5 0.2 0.9 0.4 1.4 0.6 0.5 0.1 1 0.2 1.6 0.2 0.8 0 1.4-0.2 1.8-0.6 0.5-0.4 0.7-1 0.7-1.8 0-0.9-0.2-1.5-0.7-1.9 -0.5-0.4-1.2-0.7-2.3-0.7h-0.7c-0.3 0-0.5-0.1-0.6-0.3 -0.1-0.2-0.2-0.5-0.2-1V37c0-0.4 0.1-0.8 0.2-1 0.1-0.2 0.3-0.3 0.6-0.3h0.5c0.8 0 1.4-0.2 1.9-0.6 0.5-0.4 0.7-0.9 0.7-1.5 0-0.6-0.2-1.1-0.5-1.5 -0.3-0.4-0.8-0.6-1.5-0.6 -0.6 0-1 0.1-1.4 0.2 -0.4 0.1-0.7 0.2-1.1 0.4 -0.1 0.1-0.2 0.1-0.3 0.1 -0.1 0-0.2 0.1-0.2 0.1 -0.2 0-0.3-0.1-0.5-0.3 -0.2-0.2-0.4-0.5-0.5-0.8 -0.1-0.3-0.2-0.6-0.2-0.8 0-0.4 0.2-0.7 0.7-1 0.5-0.3 1.1-0.5 1.8-0.6 0.7-0.1 1.6-0.2 2.4-0.2 1 0 2 0.2 2.7 0.5 0.8 0.4 1.4 0.9 1.8 1.6 0.4 0.7 0.6 1.4 0.6 2.3 0 0.9-0.2 1.6-0.6 2.3 -0.4 0.6-1 1.1-1.7 1.4v0.1c1 0.4 1.7 1 2.2 1.8 0.5 0.8 0.7 1.7 0.7 2.8 0 1.1-0.2 2.1-0.7 2.9 -0.5 0.8-1.2 1.4-2 1.9 -0.9 0.4-1.9 0.6-3 0.6C74.2 46.7 73.4 46.6 72.5 46.5zM64 36.1c0-0.3 0-0.6 0-1.2 0-1.2-0.2-2-0.6-2.5 -0.4-0.5-0.9-0.8-1.6-0.8 -0.4 0-0.8 0.1-1.1 0.3 -0.3 0.2-0.6 0.5-0.8 0.9 -0.2 0.4-0.3 0.8-0.3 1.3 0 0.8 0.2 1.4 0.6 1.8 0.4 0.4 1 0.7 1.7 0.7C62.6 36.7 63.3 36.5 64 36.1zM58.3 46.2c-0.2-0.3-0.3-0.6-0.4-0.9 -0.1-0.3-0.1-0.6-0.1-0.8 0-0.2 0-0.3 0.1-0.4 0-0.1 0.1-0.1 0.3-0.2 1.3-0.4 2.4-1 3.4-1.9 1-0.9 1.7-1.9 2.1-3.1 -0.5 0.2-0.9 0.4-1.3 0.5 -0.4 0.1-0.8 0.1-1.2 0.1 -0.7 0-1.5-0.2-2.2-0.5 -0.8-0.4-1.4-0.9-1.9-1.7 -0.5-0.8-0.8-1.8-0.8-3.1 0-1.3 0.3-2.4 0.9-3.2 0.6-0.9 1.3-1.5 2.2-1.9 0.9-0.4 1.9-0.6 2.9-0.6 1 0 2 0.2 2.9 0.7 0.9 0.4 1.6 1.2 2.2 2.1 0.6 1 0.9 2.2 0.9 3.8 0 2.9-0.6 5.2-1.9 6.9 -1.3 1.7-2.7 2.9-4.1 3.5 -1.4 0.7-2.4 1-2.9 1C58.7 46.6 58.4 46.5 58.3 46.2zM88.7 46.2c-0.1-0.2-0.2-0.5-0.2-1v-0.4c0-0.4 0.1-0.8 0.2-1 0.1-0.2 0.3-0.3 0.6-0.3h3V32.2l-3.4 0.5c-0.3 0-0.5-0.2-0.6-0.7 -0.1-0.5-0.2-0.9-0.2-1.5 0-0.2 0.1-0.3 0.2-0.5 0.1-0.1 0.3-0.2 0.5-0.2l6.3-1.2c0.2 0 0.4 0.1 0.7 0.2 0.2 0.1 0.4 0.3 0.4 0.4v14.2h2.4c0.3 0 0.5 0.1 0.6 0.3 0.1 0.2 0.2 0.5 0.2 1v0.4c0 0.4-0.1 0.8-0.2 1 -0.1 0.2-0.3 0.3-0.6 0.3h-9.2C89 46.5 88.8 46.4 88.7 46.2z"></path></svg>