<svg class="svg-radio2 block" xmlns="http://www.w3.org/2000/svg" viewBox="-449 474.4 44 53.6"><style type="text/css">.path-radio{fill:#67696C;}.path-radio-2{fill:#ABABAB;}</style><path class="path-radio" d="M-449 521.2h1.5v1h0c0.3-0.6 0.7-1.2 1.7-1.2 0.1 0 0.2 0 0.3 0v1.6c-0.1 0-0.3 0-0.5 0 -1.2 0-1.5 0.8-1.5 1.4v3.1h-1.6V521.2z"></path><path class="path-radio" d="M-440.2 526.1c0 0.7 0.2 0.9 0.4 0.9v0.2h-1.7c-0.1-0.3-0.1-0.4-0.1-0.7 -0.4 0.4-0.9 0.9-1.9 0.9 -0.9 0-1.8-0.5-1.8-1.8 0-1.2 0.7-1.8 1.8-1.9l1.4-0.2c0.2 0 0.6-0.1 0.6-0.5 0-0.7-0.6-0.7-1-0.7 -0.8 0-0.9 0.5-1 0.8h-1.5c0.2-1.8 1.5-2.1 2.7-2.1 0.8 0 2.4 0.3 2.4 1.7V526.1zM-441.7 524.3c-0.2 0.1-0.4 0.2-1.1 0.3 -0.6 0.1-1.1 0.2-1.1 0.9 0 0.6 0.4 0.7 0.7 0.7 0.7 0 1.4-0.5 1.4-1.2V524.3z"></path><path class="path-radio" d="M-433.7 527.2h-1.5v-0.8h0c-0.4 0.7-1.1 0.9-1.7 0.9 -1.8 0-2.5-1.6-2.5-3.2 0-2.1 1.2-3.1 2.5-3.1 1 0 1.5 0.6 1.7 0.9h0v-2.9h1.6V527.2zM-436.6 526.1c1 0 1.4-0.8 1.4-1.7 0-1-0.3-1.9-1.4-1.9 -1 0-1.3 0.9-1.3 1.8C-437.9 525-437.6 526.1-436.6 526.1z"></path><path class="path-radio" d="M-431.1 520.5h-1.6V519h1.6V520.5zM-431.1 521.2v6h-1.6v-6H-431.1z"></path><path class="path-radio" d="M-427.3 527.4c-1.6 0-3.1-1-3.1-3.2 0-2.2 1.5-3.2 3.1-3.2 1.6 0 3.1 1 3.1 3.2C-424.2 526.4-425.7 527.4-427.3 527.4zM-427.3 522.4c-1.2 0-1.4 1.1-1.4 1.8 0 0.8 0.2 1.8 1.4 1.8 1.2 0 1.4-1.1 1.4-1.8C-425.9 523.5-426.1 522.4-427.3 522.4z"></path><path class="path-radio-2" d="M-418.1 527.2h-1.5v-0.8h0c-0.4 0.7-1.1 0.9-1.7 0.9 -1.8 0-2.5-1.6-2.5-3.2 0-2.1 1.2-3.1 2.5-3.1 1 0 1.5 0.6 1.7 0.9h0v-2.9h1.6V527.2zM-421 526.1c1 0 1.4-0.8 1.4-1.7 0-1-0.3-1.9-1.4-1.9 -1 0-1.3 0.9-1.3 1.8C-422.3 525-422 526.1-421 526.1z"></path><path class="path-radio-2" d="M-414.4 527.4c-1.6 0-3.1-1-3.1-3.2 0-2.2 1.5-3.2 3.1-3.2 1.6 0 3.1 1 3.1 3.2C-411.3 526.4-412.8 527.4-414.4 527.4zM-414.4 522.4c-1.2 0-1.4 1.1-1.4 1.8 0 0.8 0.2 1.8 1.4 1.8 1.2 0 1.4-1.1 1.4-1.8C-413 523.5-413.2 522.4-414.4 522.4z"></path><path class="path-radio-2" d="M-407.3 523.1c-0.1-0.4-0.2-0.8-1.1-0.8 -0.9 0-1 0.3-1 0.6 0 0.9 3.8 0.3 3.8 2.5 0 1.8-1.7 2.1-2.6 2.1 -1.4 0-2.8-0.5-2.9-2.1h1.6c0 0.5 0.3 0.9 1.3 0.9 0.8 0 1-0.4 1-0.6 0-1-3.7-0.2-3.7-2.5 0-0.9 0.6-2 2.4-2 1.2 0 2.6 0.3 2.7 2H-407.3z"></path><path class="path-radio-2" d="M-449 474.4v43.4h43.4v-43.4H-449zM-438 484.2c1.8-3.4 5-5.2 9.7-5.2 3.7 0 6.6 1 8.7 3 2.2 2 3.2 4.7 3.2 8 0 2.6-0.8 4.8-2.3 6.8 -1 1.3-2.6 2.8-4.9 4.4l-2.7 1.9c-0.7 0.5-1.3 0.9-1.8 1.3h-8.8c1.2-1.6 3-3.2 5.4-4.9 3.1-2.2 5.2-3.8 6.1-4.8 1.4-1.5 2.1-3.2 2.1-5 0-1.5-0.4-2.7-1.2-3.6 -0.8-1-2-1.5-3.5-1.5 -2.1 0-3.5 0.8-4.2 2.3 -0.4 0.9-0.7 2.3-0.8 4.2h-6.6C-439.5 488.4-438.9 486-438 484.2zM-416.3 513.7H-440c0.1-2.2 0.5-4.1 1.2-6h22.4V513.7z"></path></svg>