<svg class="svg-tw block" xmlns="http://www.w3.org/2000/svg" viewBox="0 0 100 81.3"><path class="st0" d="M100 9.6c-3.7 1.6-7.6 2.7-11.8 3.2 4.2-2.5 7.5-6.6 9-11.3 -4 2.3-8.3 4-13 5 -4.4-4.7-11-7.3-18.2-6.2 -9 1.3-16.2 8.9-17.2 17.9 -0.3 2.4-0.1 4.8 0.4 7.1 -17-0.9-32.2-9-42.3-21.4 -1.8 3-2.8 6.5-2.8 10.3 0 7.1 3.6 13.4 9.1 17.1C10 31 6.8 30.1 4 28.6l0 0C3.9 38.6 11 47.1 20.5 49c-1.7 0.5-3.5 0.7-5.4 0.7 -1.3 0-2.6-0.1-3.9-0.4 2.6 8.1 10.2 14.1 19.2 14.2 -7 5.5-15.9 8.8-25.5 8.8 -1.7 0-3.3-0.1-4.9-0.3 9.1 5.8 19.9 9.2 31.4 9.2 37.7 0 58.4-31.3 58.4-58.4 0-0.9 0-1.8-0.1-2.7C93.8 17.3 97.3 13.7 100 9.6"></path></svg>