<svg class="svg-yt block" xmlns="http://www.w3.org/2000/svg" viewBox="0 0 100 71"><style type="text/css">.st0{clip-path:url(#SVGID_2_);}</style><defs><rect width="100" height="71"></rect></defs><clipPath><use href="#SVGID_1_"></use></clipPath><path class="st0" d="M96.1 6.2c-3.6-4.3-10.3-6-23-6H26.9C13.8 0.1 7.1 2 3.5 6.6 0 11 0 17.6 0 26.7V44c0 17.6 4.2 26.5 26.9 26.5h46.2c11 0 17.2-1.5 21.1-5.3C98.3 61.3 100 55 100 44V26.7C100 17.1 99.7 10.5 96.1 6.2L96.1 6.2zM64.2 37.7l-21 11c-0.5 0.2-1 0.4-1.5 0.4 -0.6 0-1.2-0.2-1.7-0.5 -1-0.6-1.6-1.6-1.6-2.8V24c0-1.1 0.6-2.2 1.6-2.8 1-0.6 2.2-0.6 3.2-0.1l21 10.9c1.1 0.6 1.7 1.7 1.7 2.9C65.9 36.1 65.2 37.2 64.2 37.7L64.2 37.7zM64.2 37.7"></path></svg>